<?xml version="1.0" standalone="no"?>
<!DOCTYPE svg PUBLIC "-//W3C//DTD SVG 20010904//EN"
 "http://www.w3.org/TR/2001/REC-SVG-20010904/DTD/svg10.dtd">
<svg version="1.0" xmlns="http://www.w3.org/2000/svg"
 width="512.000000pt" height="512.000000pt" viewBox="0 0 512.000000 512.000000"
 preserveAspectRatio="xMidYMid meet">

<g transform="translate(0.000000,512.000000) scale(0.100000,-0.100000)"
fill="#000000" stroke="none">
<path d="M1716 4600 c-65 -20 -135 -118 -136 -190 0 -91 7 -100 288 -382 183
-184 260 -268 247 -268 -88 0 -525 -23 -670 -35 -867 -73 -1071 -195 -1165
-694 -71 -379 -85 -1153 -29 -1646 41 -364 96 -536 213 -662 115 -123 260
-182 565 -228 664 -100 2398 -100 3061 0 315 47 457 106 575 237 109 121 164
298 204 653 56 493 42 1267 -29 1646 -94 499 -299 621 -1165 694 -145 12 -582
35 -670 35 -13 0 66 86 247 268 281 282 288 292 288 382 -1 71 -67 164 -137
191 -37 14 -119 11 -161 -6 -25 -11 -144 -123 -360 -338 l-322 -322 -323 322
c-216 216 -334 327 -359 338 -40 16 -115 19 -162 5z m1424 -1270 c707 -30
1107 -85 1204 -164 89 -72 142 -539 133 -1156 -9 -602 -56 -933 -143 -1012
-39 -35 -212 -76 -414 -98 -694 -75 -2026 -75 -2720 0 -210 23 -376 64 -417
102 -87 81 -143 511 -143 1108 0 560 55 991 136 1056 126 102 794 169 1739
172 215 1 496 -3 625 -8z"/>
</g>
</svg>
